<?xml version="1.0" encoding="UTF-8"?>
<!-- Generator: visioncortex VTracer 0.6.3 -->
<svg version="1.1" xmlns="http://www.w3.org/2000/svg" width="1280" height="1280">
<path d="M0 0 C2.22 0.63 4.45 1.27 6.67 1.9 C8.52 2.43 8.52 2.43 10.42 2.97 C14.67 4.19 18.85 5.45 23 7 C23.33 7.66 23.66 8.32 24 9 C26.26 9.36 28.49 9.44 30.77 9.56 C33.49 10.1 34.07 11.07 36 13 C38.92 14.15 38.92 14.15 42.12 15.06 C44.1 15.65 46.07 16.29 48 17 C48.5 17.99 48.5 17.99 49 19 C50.66 19.38 52.33 19.71 54 20 C60.57 21.98 66.99 24.33 73.34 26.92 C76.53 28.22 79.73 29.49 82.94 30.75 C84.02 31.18 85.1 31.61 86.21 32.05 C88.98 33.16 88.98 33.16 92 33 C92 33.66 92 34.32 92 35 C97.7 37.04 97.7 37.04 103.56 38.44 C106.61 39.14 109.09 40.48 111.84 41.96 C115.37 43.66 119.1 44.71 122.82 45.89 C129.02 47.88 134.87 50.19 140.72 53.05 C143.05 54.19 143.05 54.19 146 54 C146 54.66 146 55.32 146 56 C146.85 56.12 147.7 56.23 148.57 56.36 C157.12 57.96 165.42 61.52 173.23 65.3 C175.15 66.18 175.15 66.18 178 66 C178 66.66 178 67.32 178 68 C178.8 68.1 179.61 68.21 180.44 68.31 C184.74 69.14 188.98 70.23 193 72 C193.33 72.66 193.66 73.32 194 74 C195.82 74.54 195.82 74.54 198 74.88 C202.05 75.7 205.42 76.97 209.14 78.73 C213.84 80.82 218.65 82.61 223.44 84.45 C226.95 85.8 230.43 87.18 233.87 88.7 C236.9 89.96 238.77 90.29 242 90 C242.33 90.66 242.66 91.32 243 92 C244.93 92.74 246.9 93.39 248.88 94 C252.38 95.08 254.93 95.95 258 98 C259.32 98 260.64 98 262 98 C262 98.66 262 99.32 262 100 C267.7 102.04 267.7 102.04 273.56 103.44 C276.68 104.16 279.21 105.56 282.04 107.03 C284.62 108.31 287.25 109.14 290 110 C291.92 110.66 293.84 111.32 295.75 112 C297.17 112.5 297.17 112.5 298.61 113 C301 114 301 114 303 116 C303.2 118.91 303.26 121.73 303.25 124.65 C303.25 125.56 303.25 126.47 303.25 127.41 C303.26 130.49 303.25 133.58 303.24 136.67 C303.24 138.89 303.24 141.11 303.25 143.33 C303.25 149.46 303.24 155.59 303.23 161.72 C303.22 167.64 303.23 173.56 303.23 179.49 C303.23 191.61 303.22 203.73 303.21 215.85 C303.2 227.85 303.19 239.86 303.19 251.86 C303.19 252.61 303.19 253.36 303.19 254.12 C303.19 257.91 303.19 261.7 303.19 265.48 C303.18 292.33 303.17 319.17 303.15 346.01 C303.13 372.09 303.12 398.17 303.11 424.25 C303.11 425.06 303.11 425.86 303.11 426.69 C303.11 434.76 303.1 442.82 303.1 450.89 C303.1 467.33 303.09 483.77 303.08 500.21 C303.08 501.34 303.08 501.34 303.08 502.5 C303.08 525.68 303.06 548.85 303.05 572.02 C303.05 573.97 303.05 573.97 303.05 575.96 C303.03 601.97 303.02 627.99 303 654 C250.86 654 198.72 654 145 654 C144.01 649.71 143.02 645.42 142 641 C141.03 638.31 140.06 635.62 139.04 632.96 C137.39 628.28 136.23 623.48 135.03 618.68 C134.1 615.36 132.99 612.25 131.76 609.05 C130.49 605.61 129.5 602.09 128.5 598.56 C127 593.35 125.47 588.17 123.68 583.05 C122.91 580.73 122.25 578.38 121.58 576.03 C120.94 573.8 120.27 571.58 119.6 569.36 C114.96 554.12 114.96 554.12 113.38 547.38 C112.28 542.79 110.73 538.58 108.91 534.23 C107.68 531.22 106.86 528.14 106 525 C105.5 523.58 105 522.17 104.5 520.75 C102.97 516.3 102.21 511.84 101.53 507.19 C101.27 506.1 101.27 506.1 101 505 C100.34 504.67 99.68 504.34 99 504 C98.49 501.9 97.99 499.79 97.56 497.66 C95.78 489.21 93.11 481.01 90.25 472.86 C88.45 467.63 87.06 462.36 85.75 456.98 C83.99 449.96 81.83 443.26 78.96 436.62 C77.96 433.9 77.27 431.17 76.59 428.36 C75.39 423.55 73.95 418.81 72.56 414.06 C72.26 413.03 71.96 412 71.65 410.93 C69.9 404.91 68.03 398.94 66 393 C64.21 387.69 62.54 382.39 61 377 C60.28 374.8 59.53 372.6 58.78 370.41 C58 367.99 57.29 365.55 56.6 363.11 C54.41 355.4 52.13 347.72 49.88 340.03 C49.09 337.29 48.29 334.56 47.5 331.82 C47.06 330.32 46.63 328.82 46.19 327.31 C45.9 326.3 45.9 326.3 45.6 325.27 C44.57 321.76 43.42 318.37 42 315 C40.29 310.57 39.66 306.55 39.34 301.86 C39.23 301.24 39.12 300.63 39 300 C38.34 299.67 37.68 299.34 37 299 C36.44 297.07 36.44 297.07 36 294.69 C35.55 292.28 35.14 290.28 34.03 288.08 C32.28 284.55 31.66 280.7 30.78 276.88 C30.12 274.08 30.12 274.08 29 271.99 C27.72 269.44 27.19 266.91 26.56 264.12 C25.51 259.69 24.08 256.06 22 252 C22.01 251.21 22.02 250.43 22.03 249.62 C22 246.74 21.38 245.11 20.19 242.5 C18.03 237.43 16.87 232.38 15.81 226.98 C15.14 223.97 15.14 223.97 13.47 221.49 C11.76 218.59 11.46 216.32 11 213 C10.41 210.74 9.78 208.49 9.12 206.25 C8.77 205.02 8.41 203.8 8.04 202.54 C7.53 200.79 7.53 200.79 7 199 C6.73 198.07 6.46 197.14 6.18 196.18 C4.77 191.42 3.26 186.7 1.65 182.01 C0.19 177.49 -0.12 173.62 -0.12 168.84 C-0.12 168.12 -0.12 167.39 -0.12 166.65 C-0.12 164.23 -0.12 161.81 -0.11 159.39 C-0.11 157.66 -0.11 155.92 -0.11 154.19 C-0.11 149.48 -0.11 144.77 -0.1 140.05 C-0.1 135.13 -0.09 130.21 -0.09 125.29 C-0.09 115.97 -0.08 106.65 -0.07 97.32 C-0.06 86.71 -0.06 76.1 -0.05 65.49 C-0.04 43.66 -0.02 21.83 0 0 Z " fill="#40BEBA" transform="translate(694,626)"/>
<path d="M0 0 C1.14 3.64 1.13 7.07 1.14 10.87 C1.14 11.9 1.14 11.9 1.15 12.96 C1.16 15.27 1.16 17.59 1.16 19.9 C1.17 21.56 1.17 23.22 1.18 24.88 C1.19 29.39 1.2 33.9 1.2 38.4 C1.2 41.22 1.21 44.04 1.21 46.86 C1.23 55.69 1.24 64.51 1.24 73.34 C1.24 83.52 1.26 93.69 1.29 103.87 C1.31 111.74 1.32 119.61 1.32 127.49 C1.32 132.18 1.33 136.88 1.35 141.58 C1.36 146.01 1.37 150.43 1.36 154.85 C1.36 156.47 1.36 158.09 1.37 159.71 C1.42 168.23 1.19 175.96 -2 184 C-2.34 184.93 -2.68 185.86 -3.03 186.82 C-3.33 187.58 -3.63 188.34 -3.94 189.12 C-5.91 194.41 -7.27 199.76 -8.52 205.25 C-9.58 209.8 -11.12 213.75 -13 218 C-13.63 220.08 -13.63 220.08 -14 221.94 C-14.64 224.71 -15.45 227.29 -16.5 229.94 C-17.88 233.48 -18.7 236.99 -19.47 240.71 C-20.66 245.88 -22.53 250.83 -24.5 255.75 C-25.83 259.21 -26.65 262.69 -27.44 266.31 C-28.6 271.59 -30.17 276.52 -32.09 281.57 C-33.25 284.67 -34.14 287.81 -35 291 C-36.34 295.73 -37.73 300.43 -39.15 305.13 C-40.12 308.39 -41.02 311.66 -41.94 314.94 C-43.68 321.08 -45.76 327.03 -48 333 C-50 338.46 -51.51 343.97 -52.88 349.62 C-55.02 358.49 -57.91 367.01 -60.91 375.62 C-62.17 379.27 -63.22 382.84 -64 386.62 C-64.84 390.68 -66.34 394.2 -68 398 C-68.58 400 -69.06 402 -69.54 404.02 C-70.44 407.89 -71.47 411.7 -72.97 415.38 C-73.99 417.98 -74.74 420.54 -75.44 423.25 C-79.15 437.15 -79.15 437.15 -81 439 C-81.8 442.51 -82.48 446.05 -83.18 449.58 C-84 453 -84 453 -84.98 454.93 C-86.91 458.84 -87.51 463.29 -88.41 467.54 C-89.48 472.31 -91.01 476.51 -93 481 C-93.71 483.24 -94.37 485.49 -95 487.75 C-95.51 489.57 -95.51 489.57 -96.03 491.43 C-96.63 493.65 -97.23 495.88 -97.82 498.11 C-99.89 505.97 -99.89 505.97 -101.56 509.69 C-102.92 512.81 -103.71 515.68 -104.47 518.97 C-105.01 521.04 -105.71 522.95 -106.5 524.94 C-107.88 528.48 -108.7 531.99 -109.47 535.71 C-110.66 540.88 -112.53 545.83 -114.5 550.75 C-115.83 554.21 -116.65 557.69 -117.44 561.31 C-118.6 566.59 -120.17 571.52 -122.09 576.57 C-123.25 579.67 -124.14 582.81 -125 586 C-126.34 590.73 -127.73 595.43 -129.15 600.13 C-130.12 603.39 -131.02 606.66 -131.94 609.94 C-133.68 616.08 -135.76 622.03 -138 628 C-141.01 636.21 -142.86 644.44 -145 653 C-196.81 653 -248.62 653 -302 653 C-302.04 590.46 -302.04 590.46 -302.05 570.87 C-302.05 570.18 -302.05 569.49 -302.05 568.78 C-302.07 545.49 -302.08 522.21 -302.08 498.92 C-302.08 498.17 -302.09 497.41 -302.09 496.62 C-302.09 480.12 -302.1 463.61 -302.1 447.11 C-302.1 439.01 -302.11 430.92 -302.11 422.82 C-302.11 422.02 -302.11 421.21 -302.11 420.38 C-302.12 394.25 -302.13 368.13 -302.15 342 C-302.17 315.16 -302.18 288.32 -302.19 261.48 C-302.19 257.69 -302.19 253.9 -302.19 250.12 C-302.19 249.37 -302.19 248.63 -302.19 247.86 C-302.19 235.84 -302.2 223.82 -302.21 211.8 C-302.23 199.72 -302.23 187.65 -302.23 175.58 C-302.23 169.04 -302.23 162.49 -302.24 155.94 C-302.25 149.96 -302.25 143.98 -302.24 137.99 C-302.24 135.82 -302.24 133.65 -302.25 131.47 C-302.26 128.54 -302.25 125.6 -302.25 122.66 C-302.25 121.8 -302.26 120.94 -302.26 120.06 C-302.23 114.23 -302.23 114.23 -300 112 C-298.68 112 -297.36 112 -296 112 C-296 111.34 -296 110.68 -296 110 C-294.87 109.88 -293.73 109.75 -292.56 109.62 C-290.8 109.32 -290.8 109.32 -289 109 C-288.5 108.01 -288.5 108.01 -288 107 C-285.86 106.22 -285.86 106.22 -283.19 105.5 C-279.89 104.6 -277.03 103.56 -274 102 C-272.7 101.54 -271.38 101.1 -270.06 100.69 C-262.55 98.24 -255.07 95.54 -248 92 C-246.51 91.43 -245.01 90.89 -243.5 90.38 C-242.75 90.11 -241.99 89.85 -241.22 89.59 C-239 89 -239 89 -235 89 C-235 88.34 -235 87.68 -235 87 C-230.67 84.97 -226.71 84.48 -222 84 C-222 83.34 -222 82.68 -222 82 C-220.58 81.63 -220.58 81.63 -219.12 81.25 C-214.27 79.88 -209.65 77.93 -205 76 C-205 75.67 -205 75.34 -205 75 C-201.92 74.71 -201.92 74.71 -198.85 74.41 C-197.93 74.21 -197.93 74.21 -197 74 C-196.67 73.34 -196.34 72.68 -196 72 C-194.34 71.64 -192.67 71.31 -191 71 C-190.3 70.65 -189.6 70.3 -188.88 69.94 C-187 69 -187 69 -184 69 C-183.67 68.34 -183.34 67.68 -183 67 C-180.02 65.51 -177.58 64.94 -174.25 64.5 C-173.18 64.34 -172.11 64.17 -171 64 C-170.67 63.34 -170.34 62.68 -170 62 C-167.67 61.32 -165.34 60.65 -163 60 C-162.01 59.5 -161.02 59.01 -160 58.5 C-156.72 56.86 -153.54 55.95 -150 55 C-146.2 54.04 -146.2 54.04 -143 52 C-141.33 51.96 -139.67 51.96 -138 52 C-138 51.34 -138 50.68 -138 50 C-136.99 49.73 -135.98 49.46 -134.94 49.19 C-132.27 48.43 -129.95 47.55 -127.38 46.44 C-124 45 -124 45 -121.12 44.44 C-120.42 44.29 -119.72 44.15 -119 44 C-118.67 43.34 -118.34 42.68 -118 42 C-115.86 41.22 -115.86 41.22 -113.19 40.5 C-109.89 39.6 -107.05 38.53 -104 37 C-101.46 36.2 -98.91 35.49 -96.34 34.78 C-93.77 34.04 -93.77 34.04 -91 32 C-88.18 31.16 -85.35 30.48 -82.5 29.78 C-79.86 29.17 -79.86 29.17 -78 27 C-75.98 26.15 -75.98 26.15 -73.62 25.38 C-72.85 25.11 -72.08 24.85 -71.29 24.59 C-69 24 -69 24 -65 24 C-65 23.34 -65 22.68 -65 22 C-60.67 19.97 -56.71 19.48 -52 19 C-52 18.34 -52 17.68 -52 17 C-50.95 16.73 -49.9 16.46 -48.81 16.19 C-45.39 15.12 -43.03 13.83 -40 12 C-37.19 11.31 -37.19 11.31 -35 11 C-35 10.67 -35 10.34 -35 10 C-31.92 9.71 -31.92 9.71 -28.85 9.41 C-28.24 9.28 -27.63 9.14 -27 9 C-26.67 8.34 -26.34 7.68 -26 7 C-23.44 6.38 -23.44 6.38 -21 6 C-21 5.67 -21 5.34 -21 5 C-19.87 4.88 -18.73 4.75 -17.56 4.62 C-16.39 4.42 -15.21 4.21 -14 4 C-13.67 3.34 -13.34 2.68 -13 2 C-8.55 0.43 -4.71 -0.23 0 0 Z " fill="#40BEBA" transform="translate(591,627)"/>
<path d="M0 0 C99.99 0 199.98 0 303 0 C303.04 118.66 303.04 118.66 303.05 168.09 C303.05 178.68 303.05 189.28 303.05 199.87 C303.05 201.31 303.06 202.75 303.06 204.18 C303.06 227.11 303.07 250.05 303.08 272.98 C303.09 296.54 303.09 320.09 303.09 343.65 C303.1 358.84 303.1 374.03 303.11 389.22 C303.11 399.16 303.11 409.1 303.11 419.04 C303.11 424.79 303.11 430.54 303.12 436.28 C303.12 441.53 303.12 446.78 303.12 452.04 C303.12 453.94 303.12 455.85 303.12 457.76 C303.13 460.34 303.13 462.91 303.12 465.49 C303.13 466.25 303.13 467 303.13 467.78 C303.11 472.89 303.11 472.89 302 474 C297.5 474.51 294.94 473.05 291 471 C289.72 470.54 288.42 470.1 287.12 469.69 C277.28 466.52 267.65 462.69 258.06 458.81 C253.58 457 249.09 455.31 244.48 453.83 C234.89 450.61 225.47 446.83 216.09 443.04 C213.01 441.8 209.93 440.58 206.81 439.44 C202.43 437.82 198.14 435.99 193.83 434.18 C189.98 432.58 186.16 431.01 182.19 429.75 C171.67 426.28 161.36 422.18 151.09 418.04 C147.97 416.79 144.84 415.55 141.69 414.38 C138.8 413.3 135.97 412.17 133.12 411 C129.84 409.67 126.6 408.57 123.19 407.62 C117.95 406.12 113.21 403.81 108.29 401.48 C104.27 399.67 100.18 398.33 95.98 397 C91.82 395.6 87.82 393.87 83.79 392.15 C80.76 390.9 77.7 389.87 74.59 388.87 C64.96 385.64 55.51 381.84 46.09 378.04 C43.01 376.8 39.93 375.58 36.81 374.44 C32.43 372.82 28.14 370.99 23.83 369.18 C19.78 367.49 15.74 365.87 11.56 364.5 C10.79 364.24 10.02 363.98 9.22 363.72 C7.33 363.11 5.42 362.55 3.5 362 C2.68 361.67 1.85 361.34 1 361 C-0.08 357.77 -0.12 355.44 -0.12 352.04 C-0.13 350.79 -0.13 349.53 -0.13 348.24 C-0.13 346.84 -0.12 345.45 -0.12 344.05 C-0.12 342.57 -0.12 341.09 -0.12 339.61 C-0.13 335.54 -0.12 331.46 -0.12 327.39 C-0.11 322.99 -0.11 318.6 -0.11 314.21 C-0.11 306.6 -0.11 298.99 -0.11 291.38 C-0.1 280.38 -0.09 269.38 -0.09 258.37 C-0.09 240.52 -0.08 222.67 -0.08 204.82 C-0.07 187.48 -0.06 170.13 -0.05 152.79 C-0.05 151.71 -0.05 150.63 -0.05 149.52 C-0.05 141.08 -0.05 132.63 -0.05 124.19 C-0.04 82.8 -0.02 41.4 0 0 Z " fill="#40BFBB" transform="translate(289,0)"/>
<path d="M0 0 C99.99 0 199.98 0 303 0 C303.16 89.97 303.16 89.97 303.2 127.47 C303.2 136.05 303.21 144.63 303.22 153.22 C303.22 154.29 303.22 155.37 303.22 156.48 C303.24 173.86 303.27 191.25 303.31 208.64 C303.35 226.47 303.37 244.3 303.38 262.13 C303.38 273.15 303.4 284.16 303.43 295.17 C303.45 302.71 303.46 310.25 303.45 317.79 C303.45 322.15 303.46 326.51 303.48 330.86 C303.5 334.85 303.5 338.83 303.48 342.82 C303.48 344.26 303.49 345.71 303.5 347.15 C303.52 349.11 303.5 351.07 303.49 353.02 C303.49 354.11 303.5 355.2 303.5 356.33 C303 359 303 359 301.2 360.78 C297.95 362.58 294.51 363.71 291 364.88 C284.81 366.98 278.78 369.28 272.77 371.85 C269.1 373.37 265.38 374.7 261.65 376.04 C259.08 376.97 256.54 377.97 254 379 C249.68 380.75 245.31 382.35 240.92 383.93 C233.77 386.54 226.67 389.31 219.62 392.19 C216.82 393.32 214.17 394.24 211.25 395.06 C208.01 395.89 208.01 395.89 205.27 397.38 C201.74 399.13 198.13 400.53 194.44 401.88 C193.01 402.4 191.58 402.93 190.15 403.46 C189.44 403.72 188.74 403.98 188.01 404.25 C185.19 405.3 182.37 406.4 179.56 407.5 C173.75 409.75 167.89 411.83 162 413.86 C157.58 415.39 153.3 417.14 149 419 C146.46 419.97 143.92 420.93 141.38 421.88 C139.96 422.4 138.55 422.93 137.13 423.46 C136.44 423.72 135.74 423.98 135.02 424.24 C128.04 426.85 121.1 429.51 114.25 432.44 C108.6 434.82 102.85 436.87 97.05 438.86 C92.61 440.39 88.32 442.15 84 444 C81.07 445 78.12 445.92 75.16 446.84 C72.67 447.75 70.49 448.73 68.15 449.94 C64.05 452.04 59.86 453.59 55.5 455.06 C54.07 455.55 52.65 456.04 51.22 456.54 C50.16 456.9 50.16 456.9 49.09 457.27 C43.25 459.31 37.52 461.58 31.79 463.91 C24.27 466.96 16.78 469.89 9.02 472.31 C7.03 472.82 7.03 472.82 6 474 C4.33 474.04 2.67 474.04 1 474 C-0.21 470.37 -0.14 467.05 -0.12 463.28 C-0.12 462.48 -0.13 461.68 -0.13 460.85 C-0.13 458.16 -0.12 455.46 -0.12 452.76 C-0.12 450.81 -0.12 448.87 -0.12 446.92 C-0.13 441.56 -0.12 436.2 -0.12 430.83 C-0.11 425.05 -0.11 419.28 -0.11 413.5 C-0.11 403.49 -0.11 393.47 -0.11 383.46 C-0.1 368.98 -0.09 354.5 -0.09 340.01 C-0.09 316.52 -0.08 293.03 -0.08 269.54 C-0.07 246.72 -0.06 223.89 -0.05 201.07 C-0.05 199.63 -0.05 198.2 -0.05 196.76 C-0.05 185.66 -0.05 174.55 -0.05 163.44 C-0.04 108.96 -0.02 54.48 0 0 Z " fill="#40BEBA" transform="translate(694,0)"/>
<path d="M0 0 C1.23 3.33 1.13 6.64 1.13 10.16 C1.13 11.42 1.13 12.68 1.14 13.98 C1.13 15.38 1.13 16.78 1.13 18.18 C1.13 19.65 1.13 21.12 1.13 22.6 C1.14 26.6 1.14 30.6 1.13 34.6 C1.13 38.78 1.13 42.96 1.14 47.15 C1.14 54.17 1.14 61.2 1.13 68.22 C1.12 76.35 1.13 84.48 1.13 92.6 C1.14 99.58 1.14 106.55 1.13 113.53 C1.13 117.69 1.13 121.86 1.14 126.03 C1.14 129.94 1.14 133.86 1.13 137.77 C1.13 139.21 1.13 140.65 1.13 142.09 C1.14 144.05 1.13 146.01 1.13 147.97 C1.13 149.62 1.13 149.62 1.13 151.3 C1 154 1 154 0 157 C-4.29 157.54 -6.85 156.13 -10.57 154.14 C-14.5 152.3 -18.64 151.22 -22.79 149.99 C-27.98 148.39 -32.92 146.3 -37.92 144.19 C-40.11 143.27 -42.31 142.35 -44.5 141.44 C-45.6 140.98 -45.6 140.98 -46.73 140.51 C-51.48 138.55 -56.22 136.88 -61.21 135.61 C-63 135 -63 135 -65 133 C-67.11 132.34 -69.24 131.74 -71.38 131.19 C-78.2 129.31 -84.53 126.85 -91 124 C-98.11 120.94 -105.2 118.18 -112.6 115.89 C-115 115 -115 115 -117 113 C-119.15 112.31 -121.32 111.7 -123.5 111.12 C-129.55 109.45 -135.22 107.43 -141 105 C-143.54 103.97 -146.08 102.95 -148.62 101.94 C-149.28 101.68 -149.93 101.41 -150.61 101.14 C-154.38 99.63 -158.17 98.18 -161.98 96.78 C-164.66 95.74 -167.3 94.62 -169.94 93.5 C-174.04 91.78 -178.13 90.25 -182.36 88.88 C-186.1 87.63 -189.8 86.29 -193.5 84.94 C-194.22 84.68 -194.94 84.42 -195.68 84.16 C-200.88 82.23 -200.88 82.23 -202 80 C-202.99 79.34 -203.98 78.68 -205 78 C-204.67 77.01 -204.34 76.02 -204 75 C-202.87 74.88 -201.73 74.75 -200.56 74.62 C-198.8 74.32 -198.8 74.32 -197 74 C-196.5 73.01 -196.5 73.01 -196 72 C-192.73 70.93 -189.52 70.09 -186.12 69.5 C-185.42 69.34 -184.72 69.17 -184 69 C-183.67 68.34 -183.34 67.68 -183 67 C-180.08 65.54 -177.7 64.96 -174.44 64.56 C-170.88 63.98 -169.69 63.23 -167 61 C-165.68 60.63 -164.34 60.31 -163 60 C-160.66 59.01 -158.33 58 -156 57 C-154.01 56.31 -152.01 55.64 -150 55 C-146.21 54.03 -146.21 54.03 -143 52 C-141.33 51.96 -139.67 51.96 -138 52 C-138 51.34 -138 50.68 -138 50 C-136.97 49.71 -135.94 49.42 -134.88 49.12 C-131.55 48.18 -128.27 47.12 -125 46 C-125 45.67 -125 45.34 -125 45 C-123.95 44.71 -122.9 44.42 -121.81 44.12 C-118.09 43.03 -114.61 41.82 -111.16 40.06 C-105.01 37.03 -98.61 34.78 -92 33 C-89.16 32.11 -86.51 31.27 -83.88 29.88 C-82 29 -82 29 -78 29 C-78 28.34 -78 27.68 -78 27 C-76.59 26.49 -75.17 25.99 -73.75 25.5 C-72.57 25.08 -72.57 25.08 -71.36 24.66 C-69 24 -69 24 -65 24 C-65 23.34 -65 22.68 -65 22 C-60.67 19.97 -56.71 19.48 -52 19 C-52 18.34 -52 17.68 -52 17 C-51.01 16.75 -50.02 16.5 -49 16.25 C-46.09 15.43 -43.55 14.34 -40.88 12.94 C-37.9 11.39 -35.35 10.45 -32 10 C-29.32 9.61 -29.32 9.61 -27 9 C-26.67 8.34 -26.34 7.68 -26 7 C-22.73 5.93 -19.52 5.09 -16.12 4.5 C-15.42 4.33 -14.72 4.17 -14 4 C-13.67 3.34 -13.34 2.68 -13 2 C-10.69 1.26 -8.35 0.6 -6 0 C-4.86 -0.34 -4.86 -0.34 -3.69 -0.69 C-2 -1 -2 -1 0 0 Z " fill="#40BEBA" transform="translate(996,472)"/>
<path d="M0 0 C2.23 0.62 4.45 1.25 6.68 1.88 C7.91 2.22 9.15 2.57 10.43 2.93 C14.25 4.07 17.87 5.45 21.54 6.99 C25.25 8.51 29.05 9.78 32.85 11.07 C35 12 35 12 36 14 C37.66 14.38 39.33 14.71 41 15 C47.49 16.96 53.82 19.21 60 22 C63.61 23.6 67.19 25.1 70.94 26.31 C83.16 30.3 95.09 35.18 107 40 C117.66 44.31 128.32 48.47 139.25 52.06 C143.63 53.51 147.8 55.11 152 57 C156.3 58.88 160.61 60.64 165.01 62.25 C166.48 62.8 167.93 63.38 169.39 63.97 C172.13 65.05 174.89 65.97 177.69 66.88 C183.22 68.71 188.63 70.73 194 73 C195 73.42 196 73.83 197.03 74.26 C198.03 74.69 199.03 75.12 200.06 75.56 C200.98 75.96 201.9 76.35 202.85 76.75 C205 78 205 78 206 81 C197.02 84.83 188.17 88.38 178.78 91.11 C175.67 92.11 172.96 93.45 170.09 95 C166.54 96.7 162.78 97.8 159.03 98.97 C155.6 100.14 152.33 101.56 149 103 C146.46 103.97 143.92 104.93 141.38 105.88 C139.96 106.4 138.55 106.93 137.14 107.45 C136.44 107.71 135.75 107.97 135.03 108.24 C128.32 110.75 121.64 113.33 115 116 C106.21 119.53 97.38 122.89 88.44 126 C82.5 128.07 76.69 130.31 70.91 132.78 C61.85 136.59 52.59 139.93 43.38 143.34 C39.49 144.8 35.64 146.34 31.79 147.91 C24.27 150.96 16.78 153.89 9.02 156.31 C7.03 156.82 7.03 156.82 6 158 C4.33 158.04 2.67 158.04 1 158 C-0.1 154.69 -0.12 152.24 -0.12 148.75 C-0.12 147.45 -0.12 146.14 -0.12 144.79 C-0.12 143.34 -0.12 141.88 -0.11 140.43 C-0.11 138.9 -0.11 137.38 -0.11 135.85 C-0.11 131.7 -0.11 127.55 -0.1 123.4 C-0.1 119.06 -0.09 114.72 -0.09 110.39 C-0.09 102.18 -0.08 93.96 -0.07 85.75 C-0.06 76.4 -0.06 67.05 -0.05 57.7 C-0.04 38.47 -0.02 19.23 0 0 Z " fill="#40BEBA" transform="translate(289,471)"/>
<path d="M0 0 C3 1 3 1 3 1 Z " fill="#476770" transform="translate(791,552)"/>
<path d="" fill="#476770" transform="translate(0,0)"/>
<path d="" fill="#476770" transform="translate(0,0)"/>
<path d="" fill="#476770" transform="translate(0,0)"/>
<path d="" fill="#476770" transform="translate(0,0)"/>
<path d="M0 0 C2 1 2 1 2 1 Z " fill="#40BFBB" transform="translate(314,729)"/>
<path d="M0 0 C2 1 2 1 2 1 Z " fill="#40BFBB" transform="translate(484,664)"/>
<path d="M0 0 C2 1 2 1 2 1 Z " fill="#40BFBB" transform="translate(948,487)"/>
<path d="M0 0 C2 1 2 1 2 1 Z " fill="#476770" transform="translate(577,470)"/>
<path d="M0 0 C2 1 2 1 2 1 Z " fill="#476770" transform="translate(472,430)"/>
<path d="M0 0 C2 1 2 1 2 1 Z " fill="#476770" transform="translate(302,365)"/>
<path d="" fill="#476770" transform="translate(0,0)"/>
<path d="" fill="#476770" transform="translate(0,0)"/>
<path d="" fill="#476770" transform="translate(0,0)"/>
<path d="" fill="#476770" transform="translate(0,0)"/>
<path d="" fill="#476770" transform="translate(0,0)"/>
<path d="" fill="#476770" transform="translate(0,0)"/>
<path d="" fill="#476770" transform="translate(0,0)"/>
<path d="" fill="#476770" transform="translate(0,0)"/>
<path d="" fill="#476770" transform="translate(0,0)"/>
<path d="" fill="#476770" transform="translate(0,0)"/>
<path d="" fill="#476770" transform="translate(0,0)"/>
<path d="" fill="#476770" transform="translate(0,0)"/>
<path d="" fill="#476770" transform="translate(0,0)"/>
<path d="" fill="#476770" transform="translate(0,0)"/>
<path d="" fill="#40BFBB" transform="translate(0,0)"/>
<path d="" fill="#40BFBB" transform="translate(0,0)"/>
<path d="" fill="#40BFBB" transform="translate(0,0)"/>
<path d="" fill="#40BFBB" transform="translate(0,0)"/>
<path d="" fill="#40BFBB" transform="translate(0,0)"/>
<path d="" fill="#40BFBB" transform="translate(0,0)"/>
<path d="" fill="#40BFBB" transform="translate(0,0)"/>
<path d="" fill="#40BFBB" transform="translate(0,0)"/>
<path d="" fill="#40BFBB" transform="translate(0,0)"/>
<path d="" fill="#40BFBB" transform="translate(0,0)"/>
<path d="" fill="#40BFBB" transform="translate(0,0)"/>
<path d="" fill="#40BFBB" transform="translate(0,0)"/>
<path d="" fill="#476770" transform="translate(0,0)"/>
<path d="" fill="#476770" transform="translate(0,0)"/>
<path d="" fill="#476770" transform="translate(0,0)"/>
<path d="" fill="#476770" transform="translate(0,0)"/>
<path d="" fill="#476770" transform="translate(0,0)"/>
<path d="" fill="#476770" transform="translate(0,0)"/>
<path d="" fill="#476770" transform="translate(0,0)"/>
<path d="" fill="#476770" transform="translate(0,0)"/>
<path d="" fill="#40BFBB" transform="translate(0,0)"/>
<path d="" fill="#40BFBB" transform="translate(0,0)"/>
<path d="" fill="#40BFBB" transform="translate(0,0)"/>
<path d="" fill="#40BFBB" transform="translate(0,0)"/>
<path d="" fill="#40BFBB" transform="translate(0,0)"/>
<path d="" fill="#40BFBB" transform="translate(0,0)"/>
<path d="" fill="#40BFBB" transform="translate(0,0)"/>
<path d="" fill="#40BFBB" transform="translate(0,0)"/>
<path d="" fill="#40BFBB" transform="translate(0,0)"/>
<path d="" fill="#40BFBB" transform="translate(0,0)"/>
<path d="" fill="#40BFBB" transform="translate(0,0)"/>
<path d="" fill="#40BFBB" transform="translate(0,0)"/>
<path d="" fill="#476770" transform="translate(0,0)"/>
<path d="" fill="#476770" transform="translate(0,0)"/>
<path d="" fill="#476770" transform="translate(0,0)"/>
<path d="" fill="#476770" transform="translate(0,0)"/>
<path d="" fill="#476770" transform="translate(0,0)"/>
<path d="" fill="#476770" transform="translate(0,0)"/>
<path d="" fill="#476770" transform="translate(0,0)"/>
<path d="" fill="#476770" transform="translate(0,0)"/>
</svg>
